<svg width="588" height="433" viewBox="0 0 588 433" fill="none" xmlns="http://www.w3.org/2000/svg">
<g clip-path="url(#clip0_1_1124)">
<path d="M116.499 350.421C116.181 349.448 113.775 349.876 113.544 349.006C113.314 348.138 115.623 347.411 117.394 344.967C117.713 344.526 119.725 341.748 118.954 340.579C117.491 338.365 107.312 343.881 104.868 340.785C104.332 340.106 104.112 338.94 102.514 336.77C101.879 335.906 101.471 335.489 100.984 335.502C100.293 335.519 100.045 336.385 98.9591 337.955C97.3299 340.308 96.7419 340.013 95.6687 341.941C94.8719 343.372 94.7775 344.287 94.203 344.341C93.39 344.417 93.054 342.635 92.0605 342.566C91.0468 342.495 90.0323 344.256 89.5295 345.632C88.5857 348.214 89.1701 350.187 89.2997 352.154C89.4405 354.291 89.1099 357.42 86.7919 361.435L64.9287 396.333C69.6241 389.219 82.9523 369.819 88.3223 362.703C89.8725 360.649 91.5384 358.586 94.1024 358.198C96.571 357.825 99.5747 359.048 103.767 358.977C104.257 358.969 105.619 358.928 105.951 358.204C106.225 357.606 105.545 357.086 105.792 356.524C106.124 355.77 107.618 356.093 109.653 355.592C111.089 355.239 112.064 354.656 112.902 354.154C113.155 354.002 116.921 351.717 116.499 350.421Z" fill="#F2F2F2"/>
<path d="M59.2349 358.569C58.6665 358.444 58.1822 359.751 57.689 359.613C57.1976 359.476 57.5075 358.131 56.821 356.555C56.6971 356.271 55.9169 354.48 55.1217 354.522C53.6147 354.603 53.38 361.199 51.1586 361.507C50.6711 361.575 50.0361 361.347 48.512 361.506C47.9056 361.57 47.5838 361.65 47.4493 361.893C47.2584 362.238 47.6114 362.609 48.0668 363.596C48.7496 365.076 48.4352 365.28 49.0702 366.364C49.5416 367.169 49.9624 367.479 49.823 367.778C49.6258 368.199 48.6558 367.85 48.3353 368.319C48.0082 368.797 48.5783 369.804 49.1072 370.448C50.0997 371.657 51.2351 371.939 52.236 372.443C53.3236 372.99 54.761 374.056 56.0594 376.354L66.8477 397.173C64.7172 392.812 59.0588 380.661 57.1221 375.967C56.563 374.612 56.0332 373.198 56.5829 371.825C57.1121 370.504 58.5782 369.38 59.753 367.298C59.8902 367.055 60.2635 366.373 60.0047 366.001C59.7907 365.694 59.3396 365.878 59.1355 365.594C58.8618 365.213 59.4513 364.572 59.7932 363.427C60.0343 362.619 60.0298 361.971 60.0258 361.414C60.0247 361.246 59.9916 358.735 59.2349 358.569Z" fill="#F2F2F2"/>
<path d="M69.9979 363.649L70.337 360.512L70.545 360.315C71.5072 359.404 72.1092 358.439 72.335 357.445C72.3709 357.287 72.3987 357.128 72.4272 356.965C72.5398 356.32 72.6796 355.518 73.2985 354.686C73.6449 354.222 74.5611 353.173 75.5061 353.539C75.7611 353.635 75.9332 353.801 76.0528 353.976C76.0829 353.946 76.1136 353.915 76.1465 353.883C76.5547 353.485 76.8402 353.34 77.1153 353.199C77.3267 353.091 77.5449 352.98 77.9142 352.685C78.0763 352.555 78.206 352.438 78.3154 352.34C78.6469 352.043 79.071 351.696 79.652 351.834C80.2678 352.002 80.4789 352.591 80.619 352.98C80.8692 353.675 80.9462 354.153 80.9972 354.47C81.0156 354.586 81.0369 354.716 81.053 354.759C81.1878 355.099 82.8798 355.187 83.5164 355.224C84.9475 355.302 86.1858 355.369 86.4836 356.351C86.6973 357.053 86.252 357.819 85.1218 358.688C84.7698 358.958 84.4178 359.145 84.1112 359.284C84.2998 359.463 84.45 359.706 84.4592 360.037C84.4799 360.82 83.6781 361.421 82.076 361.826C81.6779 361.928 81.1424 362.063 80.4416 362.029C80.1116 362.012 79.8225 361.962 79.576 361.914C79.5393 362.055 79.4719 362.201 79.3504 362.34C78.9938 362.749 78.418 362.853 77.6363 362.622C76.7734 362.382 76.0916 362.054 75.4899 361.766C74.9644 361.515 74.5113 361.301 74.1311 361.242C73.4239 361.143 72.7645 361.58 71.9753 362.163L69.9979 363.649Z" fill="#F2F2F2"/>
<path d="M75.6414 345.783L72.527 346.25L72.284 346.099C71.1602 345.397 70.0756 345.059 69.0591 345.092C68.8975 345.097 68.7362 345.111 68.5719 345.124C67.9207 345.179 67.1112 345.247 66.1502 344.858C65.6144 344.64 64.3696 344.018 64.4835 343.01C64.5113 342.738 64.6276 342.529 64.7668 342.369C64.7297 342.348 64.6926 342.326 64.6524 342.302C64.1652 342.007 63.9522 341.767 63.7471 341.536C63.5893 341.359 63.4268 341.176 63.0474 340.893C62.881 340.769 62.7353 340.673 62.6128 340.592C62.2423 340.346 61.7994 340.023 61.7849 339.425C61.7915 338.785 62.3062 338.431 62.6468 338.197C63.2544 337.778 63.6962 337.582 63.9894 337.452C64.0965 337.405 64.217 337.351 64.2538 337.325C64.5482 337.108 64.2041 335.446 64.0781 334.82C63.7902 333.413 63.5411 332.196 64.4134 331.659C65.0373 331.273 65.8899 331.511 67.0155 332.385C67.3658 332.658 67.6352 332.952 67.8476 333.214C67.9722 332.986 68.1687 332.778 68.4858 332.685C69.2369 332.467 70.0206 333.091 70.8181 334.541C71.0174 334.901 71.2833 335.386 71.4282 336.074C71.4961 336.397 71.5206 336.69 71.5374 336.941C71.6826 336.941 71.8409 336.969 72.0057 337.052C72.491 337.294 72.7375 337.826 72.7132 338.641C72.6995 339.539 72.5561 340.283 72.4306 340.939C72.3217 341.512 72.2296 342.005 72.2695 342.388C72.3532 343.099 72.9428 343.627 73.705 344.244L75.6414 345.783Z" fill="#F2F2F2"/>
<path d="M76.0612 336.413L76.4003 333.277L76.6083 333.08C77.5706 332.169 78.1725 331.203 78.3983 330.21C78.4343 330.052 78.4621 329.892 78.4906 329.73C78.6032 329.085 78.743 328.283 79.3619 327.45C79.7082 326.986 80.6245 325.938 81.5694 326.304C81.8245 326.4 81.9966 326.566 82.1162 326.741C82.1462 326.711 82.177 326.68 82.2099 326.647C82.618 326.25 82.9036 326.104 83.1787 325.964C83.39 325.856 83.6083 325.745 83.9776 325.449C84.1396 325.32 84.2694 325.203 84.3787 325.105C84.7103 324.808 85.1344 324.461 85.7153 324.598C86.3311 324.767 86.5423 325.355 86.6824 325.745C86.9325 326.44 87.0096 326.918 87.0606 327.235C87.0789 327.351 87.1002 327.481 87.1163 327.523C87.2511 327.864 88.9431 327.952 89.5798 327.989C91.0109 328.066 92.2492 328.134 92.547 329.115C92.7607 329.818 92.3153 330.584 91.1852 331.453C90.8331 331.723 90.4812 331.91 90.1745 332.049C90.3631 332.228 90.5134 332.47 90.5226 332.801C90.5433 333.585 89.7414 334.186 88.1393 334.591C87.7412 334.693 87.2057 334.827 86.505 334.793C86.1749 334.777 85.8859 334.726 85.6394 334.679C85.6026 334.82 85.5353 334.966 85.4138 335.105C85.0572 335.514 84.4813 335.618 83.6997 335.387C82.8367 335.146 82.1549 334.819 81.5533 334.531C81.0277 334.28 80.5746 334.065 80.1944 334.007C79.4873 333.908 78.8278 334.345 78.0387 334.927L76.0612 336.413Z" fill="#F2F2F2"/>
<path d="M65.9624 396.511L65.4117 395.966L64.6464 395.885C64.65 395.813 64.645 395.645 64.6394 395.381C64.6099 393.938 64.5185 389.547 65.1289 382.8C65.5551 378.089 66.2673 373.308 67.2457 368.587C68.2258 363.858 69.2429 360.339 70.0599 357.511C70.6765 355.378 71.2988 353.355 71.9062 351.384C73.5274 346.119 75.0581 341.145 76.0061 335.472C76.2183 334.206 76.6589 331.569 75.7569 328.458C75.2336 326.653 74.3375 324.955 73.0927 323.411L74.2975 322.436C75.6711 324.142 76.662 326.023 77.2432 328.027C78.2433 331.477 77.7633 334.349 77.5326 335.729C76.5678 341.503 75.0218 346.524 73.3847 351.84C72.7803 353.804 72.16 355.818 71.5462 357.942C70.7366 360.744 69.7286 364.232 68.7613 368.9C67.7939 373.566 67.0908 378.288 66.6694 382.939C66.0671 389.601 66.1576 393.927 66.1872 395.349C66.2025 396.108 66.2058 396.266 65.9624 396.511Z" fill="#F2F2F2"/>
<path d="M69.7876 325.196C69.7257 325.182 69.6633 325.167 69.6009 325.148C68.3303 324.791 67.311 323.754 66.5706 322.065C66.2241 321.271 66.1423 320.436 65.9792 318.769C65.9536 318.512 65.8405 317.212 65.9795 315.488C66.07 314.362 66.1908 313.91 66.4967 313.555C66.8364 313.159 67.294 312.933 67.7776 312.819C67.7907 312.67 67.8394 312.524 67.936 312.386C68.3338 311.813 68.9997 312.048 69.361 312.171C69.5431 312.236 69.7699 312.32 70.0251 312.363C70.4261 312.432 70.6656 312.361 71.0281 312.256C71.3749 312.155 71.8061 312.03 72.4022 312.041C73.5783 312.057 74.449 312.586 74.7361 312.761C76.2481 313.671 76.7702 315.123 77.3743 316.805C77.4944 317.142 77.8928 318.36 77.9856 319.929C78.0526 321.06 77.9045 321.524 77.7348 321.855C77.3881 322.536 76.8572 322.852 75.5396 323.516C74.1631 324.212 73.4725 324.56 72.9062 324.739C71.5885 325.153 70.761 325.414 69.7876 325.196Z" fill="#F2F2F2"/>
<path d="M244.606 229.892C248.715 226.415 247.624 218.352 242.169 211.883C239.781 209.051 236.953 206.995 234.183 205.869L230.999 202.188L189.887 150.58C189.887 150.58 167.119 99.2414 160.398 93.695C153.677 88.1487 145.77 91.0363 145.77 91.0363L139.6 98.6834L178.046 170.365L217.393 210.035L222.705 215.584C223.35 218.508 224.901 221.645 227.289 224.476C232.744 230.945 240.497 233.37 244.606 229.892Z" fill="#FFB6B6"/>
<path d="M167 103.241L177.303 118.378L192.093 140.309L165.517 149.52L142.052 109.182L167 103.241Z" fill="#E6E6E6"/>
<path d="M588 395.116H0V396.912H588V395.116Z" fill="#3F3D56"/>
<path d="M416.273 270.281H369.393V254.332C369.393 228.678 390.183 207.851 415.79 207.851H416.273V270.281Z" fill="#2F2E41"/>
<path d="M379.84 261.929L387.61 236.451L407.544 235.451L416.273 270.281L379.84 261.929Z" fill="#A0616A"/>
<path opacity="0.1" d="M379.84 261.929L387.61 236.451L407.544 235.451L416.273 270.281L379.84 261.929Z" fill="black"/>
<path d="M397.978 251.38C410.924 251.38 421.418 240.866 421.418 227.897C421.418 214.928 410.924 204.414 397.978 204.414C385.033 204.414 374.539 214.928 374.539 227.897C374.539 240.866 385.033 251.38 397.978 251.38Z" fill="#A0616A"/>
<path d="M348.298 359.153L342.094 365.369C342.094 365.369 308.943 343.093 296.229 351.4C283.515 359.708 282.961 375.795 297.911 384.67C312.861 393.546 351.066 415.18 351.066 415.18C351.066 415.18 402.007 424.055 436.336 396.874C470.665 369.693 477.033 371.08 470.942 356.657C464.851 342.234 451.563 345.563 451.563 345.563L426.092 360.54L415.572 358.321L348.298 359.153Z" fill="#2F2E41"/>
<path d="M349.682 366.087L376.26 377.736L366.293 401.589L326.98 392.159" fill="#2F2E41"/>
<path d="M417.615 366.087L381.797 382.729L395.639 411.574L435.505 394.378" fill="#2F2E41"/>
<path d="M381.797 257.317L347.19 272.617L358.264 333.636L348.298 359.153L401.453 367.474L428.711 359L426.369 346.95L428.711 301.974L437.997 275.391L413.081 258.195L381.797 257.317Z" fill="#E6E6E6"/>
<path d="M372.937 379.955L390.102 384.948L381.797 405.335L359.095 396.597L372.937 379.955Z" fill="#A0616A"/>
<path d="M396.792 379.955L375.706 390.495V406.593L399.515 403.808L396.792 379.955Z" fill="#A0616A"/>
<path d="M366.293 410.465C366.293 410.465 402.837 434.872 416.68 424.887C430.522 414.903 438.274 402.144 435.505 400.48C432.737 398.816 424.431 396.042 424.431 396.042L377.921 405.472L366.293 410.465Z" fill="#2F2E41"/>
<path d="M319.782 392.159C319.782 392.159 300.956 421.004 318.675 425.442C336.393 429.88 381.044 411.574 381.044 411.574L377.921 387.721L369.615 396.042L319.782 392.159Z" fill="#2F2E41"/>
<path d="M437.113 192.499C431.933 187.703 430.206 181.138 433.253 177.836C436.3 174.535 442.968 175.747 448.148 180.546C450.244 182.434 451.858 184.798 452.855 187.439L474.543 208.039L464.677 218.03L444.343 196.661C441.636 195.872 439.157 194.445 437.113 192.499Z" fill="#A0616A"/>
<path d="M431.213 256.375L470.458 237.188L450.157 202.209L456.512 189.274C456.512 189.274 505.918 216.865 501.001 236.942C496.085 257.019 447.08 293.902 431.43 288.005C426.678 286.215 423.926 283.021 422.396 279.439C418.662 270.694 422.681 260.547 431.213 256.375Z" fill="#E6E6E6"/>
<path d="M353.103 246.895C354.296 243.263 356.649 240.083 357.702 236.408C359.101 231.529 362.077 242.354 362.368 237.286C362.92 227.653 377.595 202.874 385.973 198.114C394.35 193.354 399.162 194.789 407.697 199.259C407.697 199.259 411.84 199.523 416.998 202.075C422.156 204.626 426.799 208.712 428.805 214.113C430.395 218.394 430.219 223.095 430.751 227.632C432.231 240.271 439.303 252.292 437.785 264.926C437.311 268.868 435.816 272.944 432.599 275.263C429.382 277.582 424.184 277.329 422.066 273.973C421.344 272.828 421.038 271.469 420.419 270.265C419.8 269.06 418.681 267.938 417.329 267.975C415.297 268.031 414.263 270.763 415.064 272.635C415.865 274.506 417.748 275.636 419.516 276.641C415.305 278.539 410.082 277.948 406.4 275.157C402.718 272.367 400.73 267.492 401.407 262.917C402.362 256.469 411.738 257.803 412.842 251.38C413.646 246.704 416.47 238.879 415.701 234.197C414.932 229.515 411.238 235.184 415.129 232.479C410.848 234.547 401.691 220.403 397.21 218.818C392.728 217.234 388.928 213.804 386.891 209.503C382.137 216.406 377.956 214.531 376.254 222.742C374.551 230.953 377.378 256.281 384.387 260.866C381.582 262.783 378.093 258.852 376.777 261.989C376.032 263.765 375.548 265.709 374.31 267.185C371.947 270.003 367.582 270.175 364.103 268.99C359.79 267.52 356.102 264.293 354.068 260.209C352.035 256.124 351.68 251.231 353.103 246.895Z" fill="#2F2E41"/>
<path d="M293.145 241.391C291.878 234.44 287.271 229.46 282.856 230.269C278.44 231.077 275.889 237.367 277.157 244.32C277.626 247.105 278.753 249.736 280.445 251.995L286.184 281.379L299.89 278.387L292.778 249.737C293.564 247.024 293.69 244.163 293.145 241.391Z" fill="#A0616A"/>
<path d="M350.138 270.629L312.939 293.543L294.338 257.627L280.031 256.072C280.031 256.072 276.81 312.647 296.364 319.247C315.919 325.846 373.262 304.159 376.679 287.761C377.716 282.783 376.499 278.743 374.3 275.53C368.931 267.685 358.226 265.647 350.138 270.629Z" fill="#E6E6E6"/>
<path d="M553.088 313.41L419.837 355.603V193.056L553.088 150.863V313.41Z" fill="white"/>
<path d="M418.941 356.829V192.398L553.985 149.637V314.068L418.941 356.829ZM420.733 193.713V354.378L552.192 312.753V152.088L420.733 193.713Z" fill="#3F3D56"/>
<path d="M226.774 349.469L333.638 383.306V252.948L226.774 219.11V349.469Z" fill="white"/>
<path d="M334.535 384.532L333.368 384.162L225.878 350.126V217.884L227.045 218.254L334.535 252.29V384.532ZM227.671 348.811L332.742 382.08V253.605L227.671 220.336V348.811Z" fill="#3F3D56"/>
<path d="M452.223 203.102C450.701 211.054 453.479 219.701 459.346 225.271C465.214 230.841 473.982 233.154 481.827 231.203C489.275 229.35 496.24 221.46 493.089 214.45C490.843 209.452 483.991 207.562 479.074 209.965C474.157 212.368 471.422 218.145 471.706 223.619C471.99 229.093 474.897 234.181 478.776 238.047C488.894 248.129 505.1 250.744 514.017 261.905C521.805 271.652 521.565 286.95 513.476 296.448C505.387 305.945 490.346 308.59 479.512 302.42C475.047 299.876 471.205 295.796 470.096 290.772C468.986 285.748 471.222 279.855 475.914 277.762C484.764 273.816 493.675 284.416 503.36 284.571C508.908 284.66 514.296 280.816 516.026 275.535C517.756 270.254 515.69 263.959 511.168 260.737" fill="#C78FFF"/>
<path d="M264.7 316.834C266.413 321.871 262.863 328.014 257.649 329.033C252.436 330.053 246.84 325.7 246.536 320.387C246.231 315.074 251.293 310.107 256.588 310.523C265.12 311.192 270.158 322.891 278.699 322.344C284.542 321.97 288.234 315.982 290.391 310.528C292.875 304.249 294.691 297.704 295.8 291.042C296.724 285.484 297.149 279.729 295.815 274.256C294.481 268.782 291.176 263.585 286.164 261.027C278.552 257.143 268.132 260.932 264.497 268.677C260.862 276.423 264.363 286.656 271.826 290.821C281.159 296.03 294.014 292.279 302.494 298.79C309.289 304.009 310.457 313.632 311.078 322.188C311.473 327.645 311.864 333.186 310.749 338.542C309.634 343.898 306.794 349.14 302.083 351.909C298.516 354.006 293.753 354.421 290.319 352.11C286.886 349.799 285.597 344.452 288.267 341.287C290.452 338.696 294.432 338.283 297.63 339.396C300.828 340.509 303.432 342.84 305.943 345.116" fill="#C78FFF"/>
<path d="M177.46 51.7215L169.998 80.2223L141.55 74.6156C141.55 74.6156 152.743 54.0576 149.944 44.7131L177.46 51.7215Z" fill="#FFB6B6"/>
<path d="M147.429 422.713L164.561 422.711L172.71 356.51L147.426 356.512L147.429 422.713Z" fill="#FFB6B6"/>
<path d="M206.123 422.323C206.657 423.223 206.938 426.128 206.938 427.175C206.938 430.392 204.335 433 201.124 433H148.07C145.879 433 144.103 431.221 144.103 429.026V426.813C144.103 426.813 141.479 420.162 146.882 411.965C146.882 411.965 153.598 418.384 163.633 408.33L166.592 402.959L188.013 418.654L199.886 420.119C202.484 420.439 204.787 420.069 206.123 422.323Z" fill="#2F2E41"/>
<path d="M194.997 231.127L171.391 392.061H141.773L145.712 300.196L147.784 251.893L141.773 228.9C141.773 228.9 139.033 223.79 136.724 217.595C134.121 210.603 132.066 202.222 135.118 198.248C136.24 196.783 139.159 195.698 143.126 194.891C145.55 194.395 148.372 194.008 151.417 193.708C168.932 191.972 193.846 193.056 193.846 193.056L194.479 213.995L194.83 225.687L194.997 231.127Z" fill="#2F2E41"/>
<path d="M117.252 414.842L134.201 417.337L151.876 353.028L126.86 349.345L117.252 414.842Z" fill="#FFB6B6"/>
<path d="M175.378 423.01C175.775 423.978 175.632 426.893 175.48 427.929C175.013 431.112 172.059 433.313 168.882 432.845L116.392 425.113C114.225 424.794 112.726 422.775 113.045 420.604L113.366 418.414C113.366 418.414 111.735 411.452 118.271 404.129C118.271 404.129 123.983 411.458 135.371 402.974L139.079 398.091L157.993 416.741L169.528 419.92C172.051 420.615 174.384 420.585 175.378 423.01Z" fill="#2F2E41"/>
<path d="M195.369 204.288L192.131 232.223L174.473 291.091L145.406 388.007L116.107 383.694L142.403 245.893L139.799 222.264C139.799 222.264 138.951 219.915 137.979 216.476C136.05 209.674 133.63 198.595 136.292 192.944C136.652 192.176 137.103 191.51 137.661 190.97C138.708 189.953 140.836 189.335 143.687 189.007C155.605 187.658 180.148 191.517 191.069 193.412L195.369 204.288Z" fill="#2F2E41"/>
<path d="M172.796 71.8122L204.976 112.461L199.199 154.84L194.249 197.963L135.953 189.086C135.953 189.086 148.545 158.716 149.944 157.314C151.344 155.913 154.858 159.375 152.401 154.84C149.944 150.306 147.146 150.306 149.478 147.97C151.81 145.634 131.29 115.264 131.29 98.9113C131.29 82.5584 141.083 69.4761 141.083 69.4761L172.796 71.8122Z" fill="#E6E6E6"/>
<path d="M165.289 57.1039C177.261 57.1039 186.966 47.3807 186.966 35.3864C186.966 23.3922 177.261 13.6689 165.289 13.6689C153.316 13.6689 143.611 23.3922 143.611 35.3864C143.611 47.3807 153.316 57.1039 165.289 57.1039Z" fill="#FFB6B6"/>
<path d="M164.275 76.9094C164.275 76.9094 167.519 51.1957 168.093 43.7179C168.668 36.2402 179.203 24.5653 179.203 24.5653L186.667 30.605C186.667 30.605 192.983 30.605 188.677 21.4017C184.371 12.1983 176.333 10.7603 176.333 10.7603C176.333 10.7603 175.471 -1.31912 160.543 0.118914C145.615 1.55694 139.013 13.6364 139.013 13.6364C139.013 13.6364 138.151 -1.60671 128.678 9.60988C119.204 20.8265 113.75 25.4281 123.798 29.167C133.845 32.9059 141.309 30.0298 141.309 30.0298C141.309 30.0298 131.549 32.0431 133.271 38.9456C134.994 45.8481 110.592 77.197 121.788 80.6483C132.984 84.0996 157.96 92.4401 160.831 86.9756C163.701 81.5111 164.275 76.9094 164.275 76.9094Z" fill="#2F2E41"/>
<path d="M253.635 232.046C257.773 228.603 256.749 220.531 251.349 214.017C248.985 211.165 246.174 209.085 243.414 207.936L240.261 204.228L199.582 152.277C199.582 152.277 177.244 100.749 170.57 95.1465C163.896 89.5439 155.965 92.3651 155.965 92.3651L149.731 99.9601L187.576 171.962L226.59 211.961L231.855 217.554C232.476 220.483 234.001 223.633 236.365 226.485C241.765 232.999 249.497 235.489 253.635 232.046Z" fill="#FFB6B6"/>
<path d="M147.37 88.3711C147.37 88.3711 157.328 140.144 168.66 147.777L191.242 130.136C191.242 130.136 193.218 130.051 189.54 125.889C185.862 121.727 186.804 112.789 186.804 112.789C186.804 112.789 188.459 114.934 184.858 111.957C181.257 108.979 184.609 88.4988 184.609 88.4988L147.37 88.3711Z" fill="#E6E6E6"/>
</g>
<defs>
<clipPath id="clip0_1_1124">
<rect width="588" height="433" fill="white"/>
</clipPath>
</defs>
</svg>
