<svg width="515" height="368" viewBox="0 0 515 368" fill="none" xmlns="http://www.w3.org/2000/svg">
<g clip-path="url(#clip0_1_1667)">
<path d="M400.875 166.882C399.912 164.408 401.288 163.17 401.838 160.971C402.389 158.771 400.6 151.897 400.6 151.897C400.6 151.897 394.822 128.114 393.033 123.439C392.277 121.461 390.633 120.101 388.988 119.187C388.877 118.58 388.716 118.189 388.493 118.078C386.9 117.281 382.93 115.551 380.284 115.073C379.79 114.223 379.203 113.43 378.535 112.709C378.999 111.818 379.215 110.818 379.158 109.815C378.99 107.221 377.024 104.897 377.28 102.31C377.474 100.349 378.909 98.7371 379.463 96.8452C379.695 95.9955 379.75 95.1071 379.624 94.2353C379.498 93.3635 379.195 92.5268 378.732 91.7772C379.139 92.2098 379.546 92.6424 379.953 93.0751C380.506 92.246 380.773 91.2584 380.711 90.2636C380.65 89.2688 380.264 88.3215 379.612 87.5668C378.324 86.1443 376.169 85.6108 375.169 83.9726C374.142 82.2893 374.693 80.002 373.722 78.2859C371.342 74.0819 365.249 77.062 361.6 75.5947C360.101 74.9917 358.961 74.3281 357.274 74.3757C355.839 74.4579 354.421 74.7226 353.053 75.1633C351.091 75.7306 349.384 76.9537 348.216 78.628C348.331 78.4969 348.458 78.3761 348.594 78.2671C349.478 77.5746 351.029 77.6323 351.496 78.6533C351.607 78.91 351.654 79.19 351.632 79.469C351.555 80.6999 350.479 81.6191 349.41 82.2351C348.341 82.8511 347.138 83.3665 346.44 84.3837C345.288 86.0624 345.966 88.3153 345.966 90.3507C345.957 91.6441 345.657 92.919 345.089 94.0814C344.522 95.2439 343.7 96.2643 342.686 97.0675L346.568 95.4816C344.714 98.7235 343.497 102.289 342.983 105.988L348.231 101.654C346.287 104.746 345.106 108.255 344.784 111.892L348.997 107.579C349.189 107.916 349.285 108.298 349.275 108.686L348.836 110.379C348.681 110.715 348.509 111.043 348.32 111.362C347.642 112.526 346.941 113.957 347.576 115.145L347.579 115.144C346.911 117.388 345.904 119.633 343.664 120.724C346.149 120.984 348.742 119.743 349.864 117.767C350.047 118.122 350.268 118.457 350.523 118.765C350.595 118.855 350.666 118.945 350.737 119.034L350.118 119.447L348.459 120.552C348.459 120.552 337.591 122.752 338.278 126.876C338.307 127.046 338.341 127.248 338.379 127.475L335.252 132.788L330.712 148.185C330.712 148.185 328.373 153.134 328.786 155.197C329.198 157.259 328.786 158.084 328.786 161.795C328.786 165.507 326.997 167.02 328.786 170.044C330.574 173.069 335.94 181.867 335.94 181.867L337.118 182.75C337.061 183.281 337.081 183.817 337.178 184.342C338.278 189.841 348.597 242.495 348.597 242.495C348.597 242.495 343.369 284.15 353.962 286.762C355.291 287.09 356.595 287.387 357.863 287.652L359.465 298.173L358.502 311.508C358.502 311.508 351.21 328.006 364.555 328.968C377.9 329.93 371.847 314.67 371.847 314.67C372.551 313.367 372.839 311.88 372.672 310.408C372.536 309.185 371.391 302.816 370.267 296.691C375.332 296.084 374.384 290.713 373.709 288.352C374.001 288.181 374.22 287.909 374.323 287.587C374.476 287.039 374.121 284.882 373.477 281.858C372.952 278.853 372.056 273.988 371.444 270.692L374.736 271.227L388.631 189.841C388.631 189.841 388.723 188.545 388.681 186.65C390.581 185.668 392.54 184.806 394.547 184.067C399.087 182.28 400.875 175.681 402.388 172.931C403.902 170.182 401.838 169.357 400.875 166.882ZM351.54 115.063C351.99 114.753 352.517 114.575 353.062 114.547C352.944 115.187 351.844 115.374 350.921 115.708C351.09 115.461 351.3 115.243 351.54 115.063ZM344.607 156.021C345.722 157.851 343.703 162.81 341.885 166.745C340.843 165.848 339.755 166.13 341.03 163.583C341.899 161.968 342.415 160.187 342.543 158.359C342.543 158.044 342.705 155.735 344.06 154.775C344.203 155.207 344.386 155.624 344.607 156.021ZM340.432 171.815C341.062 171.558 342.017 171.164 343.307 170.726C342.689 171.536 341.984 172.502 341.274 173.556C341.006 173.353 340.79 173.089 340.644 172.787C340.497 172.484 340.425 172.151 340.432 171.815ZM385.054 173.619C384.218 172.73 383.542 171.936 382.985 171.225C384.023 171.498 385.079 171.792 386.155 172.106C386.69 172.186 387.237 172.15 387.758 172C387.805 172.95 387.805 174.306 387.805 174.306L386.299 175.348C385.955 174.724 385.537 174.143 385.054 173.619ZM389.323 168.851C389.307 168.865 389.29 168.881 389.273 168.895C389.199 168.352 389.076 167.816 388.906 167.295C388.004 164.453 387.523 159.411 387.266 155.109L389.869 163.858C389.869 163.858 390.007 168.257 389.323 168.851Z" fill="#D0CDE1"/>
<path d="M335.883 132.716C335.883 132.716 321.769 108.474 321.328 105.829C320.887 103.185 313.829 98.3366 313.829 98.3366C311.418 95.9271 307.462 95.1647 303.299 95.2044C304.867 93.9083 299.269 93.037 298.833 92.166C298.392 91.2845 297.069 91.2845 295.304 89.9622C293.54 88.64 289.137 89.7417 289.136 89.7418C288.474 88.3499 288.013 86.8708 287.768 85.3491C289.647 83.1269 290.677 80.3103 290.673 77.4006C290.673 77.369 290.671 77.3378 290.671 77.3062C290.783 77.4808 290.895 77.6565 291.008 77.8375C291.834 72.8918 293.292 68.7808 290.513 64.2691C288.542 61.0715 285.458 58.7152 281.853 57.6537L279.205 59.7703L280.235 57.3015C279.369 57.1696 278.493 57.119 277.618 57.1504L275.236 60.211L276.222 57.2552C274.155 57.5119 272.163 58.1938 270.373 59.2579C268.583 60.3221 267.033 61.7453 265.82 63.4379C262.788 67.8066 262.991 73.8793 265.973 78.2821C265.983 78.2513 265.991 78.2211 266.001 78.1903C266.133 80.25 266.779 82.2439 267.882 83.9892C268.984 85.7345 270.507 87.1756 272.311 88.1804L273.06 94.1687C272.386 94.7942 271.521 95.1755 270.604 95.2513C269.281 95.2513 267.958 98.7774 267.958 98.7774C267.958 98.7774 267.208 99.1556 266.4 100.941C264.318 102.357 257.966 106.807 255.61 109.916C254.216 110.602 252.719 112.126 252.962 115.526C253.403 121.697 252.962 150.346 252.962 150.346C252.962 150.346 248.992 174.588 250.315 176.351C251.638 178.114 249.874 183.844 249.874 183.844L251.197 184.138V185.607C251.197 185.607 247.217 204.043 253.403 203.237C263.547 201.915 256.049 186.929 256.049 186.929V185.215L257.813 185.607C257.813 185.607 258.696 179.436 260.46 178.995C261.073 178.842 261.794 177.195 262.472 175.112C262.868 178.361 263.106 180.318 263.106 180.318L265.866 179.705L266.635 182.521C266.824 182.628 267.023 182.717 267.228 182.79L266.635 186.048C266.635 186.048 266.194 189.574 266.635 191.777C266.857 192.889 275.045 216.645 283.107 239.923L282.954 245.55C282.954 245.55 278.985 249.958 279.867 253.043C280.749 256.128 277.662 281.692 277.662 281.692L275.015 294.474L275.681 294.679L275.07 296.919C274.543 297.184 274.075 297.552 273.692 298C270.163 301.967 265.753 313.427 265.753 313.427C265.753 313.427 257.813 325.327 270.163 324.886C282.513 324.446 283.396 320.038 283.396 320.038C283.396 320.038 285.16 308.578 285.16 308.138C285.16 307.697 284.278 303.166 284.278 303.166L283.935 302.788L284.174 297.29L286.483 298C286.483 298 288.688 286.54 290.453 285.218C291.069 284.756 292.71 279.608 294.583 272.996C296.497 278.505 298.351 297.552 298.953 299.281C298.74 299.572 298.552 299.881 298.392 300.204C296.409 304.006 294.2 307.686 291.776 311.223C291.776 311.223 277.662 319.597 291.776 321.801C291.776 321.801 299.715 322.242 303.685 319.597C307.655 316.953 318.24 312.986 318.24 312.104C318.24 311.223 315.594 298.265 312.947 299.675L311.175 295.601L312.947 294.915L301.781 244.827C302.045 243.76 302.239 242.676 302.362 241.583C302.362 239.275 308.073 194.332 309.526 182.932C315.922 184.743 321.769 171.503 321.769 171.503L323.219 168.894L325.297 170.18C325.297 170.18 327.062 165.773 329.708 165.332C332.355 164.891 337.206 141.531 337.206 138.446C337.166 136.465 336.715 134.514 335.883 132.716ZM315.333 167.249C314.899 166.56 314.395 165.918 313.829 165.332C314.983 162.33 315.868 159.233 316.476 156.076C317.358 151.228 315.153 135.36 315.153 135.36L315.114 134.283C317.279 137.122 320.004 140.909 320.004 141.972C320.004 142.485 320.124 142.991 320.354 143.45C320.583 143.909 320.917 144.308 321.328 144.616L318.681 153.872C318.681 153.872 316.917 158.28 316.476 160.484C316.212 161.79 316.064 163.118 316.035 164.45L316.66 164.837L315.333 167.249Z" fill="#D0CDE1"/>
<path d="M133.958 140.874L136.312 140.345L126.608 113.018L105.658 105.304C105.658 105.304 105.577 105.393 105.429 105.547C103.642 103.818 102.884 101.31 102.567 99.3364C104.252 98.6563 105.765 97.613 107 96.2809C108.235 94.9488 109.16 93.3607 109.71 91.63C110.26 89.8993 110.421 88.0687 110.181 86.2688C109.941 84.4689 109.307 82.7441 108.323 81.2174C110.049 80.8033 110.666 79.2383 111.245 77.372C110.886 77.2662 110.52 77.1866 110.15 77.1338C110.422 76.5254 110.693 75.917 110.965 75.3087C110.487 75.2658 110.01 75.223 109.533 75.1802C109.655 74.6115 109.777 74.0428 109.899 73.4741C109.291 73.8938 108.682 74.3136 108.074 74.7334C108.28 74.1363 108.332 73.4966 108.223 72.8742C108.114 72.2519 107.849 71.6674 107.452 71.1756C106.644 70.1999 105.59 69.4573 104.399 69.0244C102.07 68.1086 99.5326 67.8519 97.0668 68.2826C94.601 68.7133 92.3016 69.8146 90.4211 71.4657L90.2892 70.952C86.5655 73.8125 84.1289 78.032 83.5137 82.6851C82.9296 87.2846 85.1407 91.9679 88.0147 95.6077C87.9905 95.4488 87.9645 95.2903 87.9382 95.132C88.0624 95.3031 88.1907 95.4708 88.323 95.6353L88.6763 109.051L87.7915 109.809C87.7901 109.809 72.9459 116.52 72.3672 124.536L72.3655 124.542C71.4745 128.444 71.0334 148.719 71.0334 148.719H72.2549L71.0334 156.653L63.0941 187.506C63.0941 187.506 52.9495 200.729 61.7709 203.373C67.2526 205.016 68.8166 198.661 69.2154 193.613C69.533 194.864 70.4829 195.71 72.3566 195.88C72.5041 195.894 72.6615 195.905 72.8138 195.917C68.6428 206.689 71.4745 241.719 71.4745 241.719C69.2691 246.127 95.2924 276.539 95.2924 276.539L96.8593 275.704L97.1984 276.381C96.3264 276.465 95.7334 276.539 95.7334 276.539V290.202C95.7334 290.202 91.7638 303.866 97.0567 306.51C98.4262 307.195 99.8547 306.697 101.22 305.585C100.959 309.802 100.585 316.094 100.585 317.529C100.585 319.733 106.319 323.7 106.319 323.7C106.319 323.7 107.642 328.548 118.228 328.548C128.814 328.548 120.875 315.766 120.875 315.766L115.141 302.984C115.141 302.984 114.712 303.194 113.413 302.138L113.878 297.027L116.464 297.255L119.992 245.686C119.992 245.686 123.08 199.847 123.521 192.795C123.624 190.534 123.571 188.269 123.361 186.015L136.312 159.297L133.958 140.874ZM124.403 157.975L123.08 162.583V152.392L124.403 157.975ZM69.3384 190.661C69.3494 189.046 69.2692 187.947 69.2692 187.947L77.8921 170.713L77.6495 176.046C77.6495 176.046 70.7436 184.775 69.3384 190.661ZM89.5585 240.397L97.9388 210.866L102.791 246.567L102.443 259.547C101.852 258.354 101.378 257.107 101.026 255.823C99.7031 250.534 89.5585 240.397 89.5585 240.397Z" fill="#D0CDE1"/>
<path d="M208.918 310.546C204.786 308.846 196.763 305.202 195.791 303.259C194.819 301.315 189.957 286.254 189.957 286.254L188.705 286.345C188.543 279.503 187.854 252.985 186.796 249.815C186.796 249.815 191.901 207.789 181.691 191.027L179.852 183.6C180.455 180.623 180.378 173.729 179.99 172.564C179.503 171.107 185.581 166.491 183.879 163.576C182.178 160.661 177.559 150.701 177.559 150.701C177.559 150.701 178.045 144.385 171.481 138.555C171.481 138.555 169.563 127.703 160.92 127.542C159.751 125.504 158.116 122.264 158.597 120.821C159.112 119.277 161.082 114.461 162.195 111.766C162.786 111.499 163.354 111.183 163.892 110.822C170.766 107.744 175.612 100.345 175.612 91.7022C175.612 82.4499 170.061 74.6197 162.411 71.994C162.752 71.0965 162.891 70.1352 162.819 69.178C162.747 68.2208 162.466 67.291 161.995 66.4544C161.524 65.6178 160.875 64.8947 160.094 64.3363C159.312 63.7779 158.418 63.3977 157.473 63.2227C156.529 63.0476 155.557 63.082 154.628 63.3233C153.698 63.5647 152.833 64.0071 152.093 64.6193C151.353 65.2315 150.757 65.9986 150.346 66.8664C149.935 67.7342 149.721 68.6815 149.717 69.6414C149.296 68.6449 149.129 67.5598 149.23 66.483C149.331 65.4062 149.697 64.3712 150.296 63.4703C150.895 62.5695 151.708 61.8309 152.662 61.3205C153.617 60.81 154.682 60.5436 155.765 60.5451C156.191 60.5457 156.616 60.5875 157.034 60.6701C155.592 59.9852 153.951 59.8489 152.416 60.2869C150.882 60.7248 149.56 61.707 148.698 63.0492C147.836 64.3915 147.493 66.0017 147.735 67.5782C147.976 69.1546 148.784 70.5891 150.008 71.6128C150.083 71.8527 150.173 72.088 150.275 72.3175C143.077 75.2202 137.942 82.8035 137.942 91.7022C137.942 99.9566 142.361 107.077 148.747 110.382C148.713 113.067 148.046 117.594 144.341 120.352C142.426 119.478 139.77 118.519 138.065 118.954C137.184 118.268 135.854 118.041 134.044 119.849C130.398 123.493 127.237 132.967 127.237 138.798C127.237 144.628 127.967 178.395 127.967 178.395C127.967 178.395 124.077 179.852 126.751 182.039C127.303 182.498 127.996 182.756 128.715 182.768L131.37 202.444C131.37 202.444 129.668 221.393 136.232 221.635C136.747 221.664 137.258 221.538 137.701 221.275L132.828 243.256C132.828 243.256 121.646 250.544 112.894 264.876C108.387 272.259 106.14 276.8 105.017 279.474L103.414 278.48L97.8223 289.169C97.8223 289.169 85.4242 296.7 88.0983 302.287C90.7724 307.874 93.2034 309.332 93.2034 309.332L94.9051 308.603L98.0653 314.433C98.0653 314.433 106.331 326.337 119.701 320.263C120.329 319.421 120.668 318.399 120.668 317.348C120.668 316.298 120.329 315.276 119.701 314.433C117.513 311.275 111.922 304.473 111.922 304.473L115.568 286.011L114.814 285.543L137.934 257.589C137.934 257.589 144.74 253.459 147.171 249.815C149.602 246.171 164.674 208.517 164.674 208.517L173.183 247.871C173.183 247.871 172.697 262.204 174.885 271.435C176.077 276.614 176.855 281.878 177.21 287.18L176.586 287.226L178.045 298.157C178.045 298.157 171.724 313.704 176.1 314.919C179.213 315.723 182.382 316.291 185.581 316.62L186.067 314.919C186.067 314.919 204.786 325.122 211.592 317.591C211.592 317.591 213.051 312.247 208.918 310.546ZM142.309 191.27C143.039 191.998 142.795 195.399 142.795 195.399L141.337 204.874L139.88 211.445C139.679 208.34 139.272 205.252 138.663 202.201L137.99 184.045C138.122 184.129 138.267 184.189 138.42 184.225C138.906 184.225 138.663 180.095 138.663 180.095C138.663 180.095 138.947 179.358 139.301 178.194C140.246 181.021 141.399 182.866 142.795 183.253L143.039 186.411C143.039 186.411 139.878 187.869 142.795 187.869C142.965 187.862 143.133 187.838 143.297 187.794L143.039 189.083C143.039 189.083 141.58 190.541 142.309 191.27Z" fill="#D0CDE1"/>
<path d="M204.763 321.863C312.689 321.863 400.18 320.422 400.18 318.644C400.18 316.866 312.689 315.425 204.763 315.425C96.8373 315.425 9.34619 316.866 9.34619 318.644C9.34619 320.422 96.8373 321.863 204.763 321.863Z" fill="#3F3D56"/>
<path d="M273.158 335.275C391.876 335.275 488.115 331.552 488.115 326.959C488.115 322.367 391.876 318.644 273.158 318.644C154.44 318.644 58.2004 322.367 58.2004 326.959C58.2004 331.552 154.44 335.275 273.158 335.275Z" fill="#3F3D56"/>
<path d="M233.485 347.614C291.747 347.614 338.978 343.891 338.978 339.298C338.978 334.706 291.747 330.983 233.485 330.983C175.223 330.983 127.992 334.706 127.992 339.298C127.992 343.891 175.223 347.614 233.485 347.614Z" fill="#3F3D56"/>
<path d="M385.953 353.515C411.897 353.515 432.929 351.594 432.929 349.223C432.929 346.853 411.897 344.931 385.953 344.931C360.01 344.931 338.978 346.853 338.978 349.223C338.978 351.594 360.01 353.515 385.953 353.515Z" fill="#3F3D56"/>
<path d="M321.53 368C333.835 368 343.81 366.078 343.81 363.708C343.81 361.338 333.835 359.416 321.53 359.416C309.225 359.416 299.25 361.338 299.25 363.708C299.25 366.078 309.225 368 321.53 368Z" fill="#3F3D56"/>
<path d="M140.072 349.76C152.376 349.76 162.351 347.838 162.351 345.468C162.351 343.098 152.376 341.176 140.072 341.176C127.767 341.176 117.792 343.098 117.792 345.468C117.792 347.838 127.767 349.76 140.072 349.76Z" fill="#3F3D56"/>
<path d="M250.128 296.917L252.275 311.938L263.012 310.865L261.939 295.307L250.128 296.917Z" fill="#FFB8B8"/>
<path d="M199.126 296.917L196.979 311.938L186.241 310.865L187.315 295.307L199.126 296.917Z" fill="#FFB8B8"/>
<path d="M183.557 141.338C183.557 141.338 173.894 152.604 176.041 170.308C178.189 188.012 181.947 228.248 181.947 228.248L184.631 299.599L201.81 298.526L204.495 237.904L213.084 189.085L236.169 245.951C236.169 245.951 247.443 299.063 247.98 299.063C248.517 299.063 264.086 297.453 264.086 297.453L256.57 234.685C256.57 234.685 244.759 143.484 237.78 141.875C230.801 140.265 183.557 141.338 183.557 141.338Z" fill="#2F2E41"/>
<path d="M264.086 308.719C264.086 308.719 254.423 302.282 250.665 309.792C246.907 317.303 250.128 322.668 250.128 322.668C250.128 322.668 253.349 324.814 251.738 326.96C250.128 329.105 249.591 343.054 263.549 340.908C277.508 338.762 270.528 324.277 270.528 324.277L264.086 308.719Z" fill="#2F2E41"/>
<path d="M185.168 308.719C185.168 308.719 194.831 302.282 198.589 309.792C202.347 317.303 199.126 322.668 199.126 322.668C199.126 322.668 195.905 324.814 197.516 326.96C199.126 329.105 199.663 343.054 185.705 340.908C171.746 338.762 178.725 324.277 178.725 324.277L185.168 308.719Z" fill="#2F2E41"/>
<path d="M196.71 36.9932C196.71 36.9932 201.542 50.4051 197.784 57.9158C194.026 65.4265 203.689 74.0102 203.689 74.0102C203.689 74.0102 228.922 61.1347 225.701 54.697C222.479 48.2592 217.111 39.6756 218.185 34.3108L196.71 36.9932Z" fill="#FFB8B8"/>
<path d="M206.105 42.0895C215.593 42.0895 223.285 34.4034 223.285 24.9222C223.285 15.4409 215.593 7.75488 206.105 7.75488C196.617 7.75488 188.926 15.4409 188.926 24.9222C188.926 34.4034 196.617 42.0895 206.105 42.0895Z" fill="#FFB8B8"/>
<path d="M193.757 57.1111C193.757 57.1111 210.995 71.4449 223.851 51.1343L237.243 58.7205L244.222 140.265C244.222 140.265 205.032 162.797 186.241 143.484L188.926 67.8407L193.757 57.1111Z" fill="#D0CDE1"/>
<path d="M199.171 49.0813L174.967 65.1579L183.557 104.857L172.283 166.552L190.536 139.192L199.171 49.0813Z" fill="#575A89"/>
<path d="M220.561 44.6064L226.506 48.5273L250.665 57.1109L246.907 123.634L257.107 166.552L242.612 174.063C242.612 174.063 239.927 153.677 223.285 143.484C206.642 133.291 216.764 47.6598 220.561 44.6064Z" fill="#575A89"/>
<path d="M180.336 148.849L187.315 153.677C187.315 153.677 178.457 163.065 176.846 161.456C176.38 161.009 176.018 160.464 175.786 159.862C175.554 159.259 175.458 158.613 175.504 157.969L173.894 154.213L180.336 148.849Z" fill="#FFB8B8"/>
<path d="M226.731 147.805L224.358 151.531C224.358 151.531 217.379 154.75 218.99 156.896C220.6 159.042 234.022 163.87 236.706 159.042L239.391 154.213L226.731 147.805Z" fill="#FFB8B8"/>
<path d="M178.189 64.6216L174.431 65.1581L168.257 105.126C168.257 105.126 165.841 112.368 168.525 129.535C171.209 146.703 173.868 157.882 173.868 157.882L185.705 149.385L180.336 135.437L187.315 84.4713L178.189 64.6216Z" fill="#575A89"/>
<path d="M242.075 56.0381L250.665 57.111C250.665 57.111 260.328 67.3041 261.939 78.0337C263.549 88.7632 263.012 119.342 263.012 119.342L238.317 158.505L224.895 148.849L243.685 115.587L234.559 75.8878L242.075 56.0381Z" fill="#575A89"/>
<path d="M222.488 9.39542C219.89 5.17982 215.824 2.07338 211.071 0.673979L207.581 3.46436L208.938 0.209694C207.797 0.0357227 206.642 -0.0309844 205.488 0.0104463L202.347 4.04543L203.647 0.148659C200.922 0.487074 198.297 1.38607 195.937 2.78894C193.576 4.19181 191.533 6.06814 189.934 8.2996C185.937 14.059 185.263 22.0685 189.194 27.8729C190.273 24.5588 191.583 21.449 192.662 18.1349C193.511 18.2504 194.37 18.2546 195.22 18.1473L196.533 15.0858L196.899 18.0178C200.969 17.6635 207.005 16.8856 210.863 16.1729L210.488 13.9237L212.733 15.7928C213.915 15.5208 214.617 15.2743 214.559 15.0858C217.428 19.7083 220.271 22.6608 223.14 27.2833C224.23 20.7631 226.152 15.3433 222.488 9.39542Z" fill="#2F2E41"/>
<path d="M221.536 26.7072C222.179 26.7072 222.699 25.6666 222.699 24.3829C222.699 23.0992 222.179 22.0586 221.536 22.0586C220.894 22.0586 220.373 23.0992 220.373 24.3829C220.373 25.6666 220.894 26.7072 221.536 26.7072Z" fill="#FFB8B8"/>
<path d="M407.357 327.807C407.852 344.737 397.952 350.942 385.529 351.304C385.24 351.313 384.953 351.318 384.667 351.32C384.091 351.324 383.52 351.315 382.955 351.291C371.72 350.825 362.826 344.865 362.366 329.12C361.89 312.826 382.129 291.655 383.647 290.089L383.65 290.087C383.708 290.027 383.737 289.998 383.737 289.998C383.737 289.998 406.862 310.878 407.357 327.807Z" fill="#C78FFF"/>
<path d="M384.634 348.739L392.526 337.011L384.651 350L384.667 351.32C384.091 351.324 383.52 351.315 382.955 351.291L383.347 334.328L383.336 334.197L383.351 334.172L383.388 332.569L374.746 320.03L383.378 331.369L383.408 331.708L383.704 318.892L376.239 305.892L383.725 316.641L383.647 290.089L383.647 290L383.65 290.087L384.145 311.014L390.949 302.513L384.168 312.816L384.316 324.28L390.576 313.092L384.339 325.966L384.422 332.34L393.526 316.755L384.45 334.564L384.634 348.739Z" fill="#3F3D56"/>
<path d="M119.6 302.593C120.095 319.523 110.195 325.728 97.772 326.09C97.4835 326.099 97.1962 326.104 96.9102 326.106C96.3341 326.11 95.7635 326.1 95.1986 326.077C83.9629 325.611 75.0692 319.651 74.609 303.906C74.1328 287.611 94.3719 266.44 95.8904 264.874L95.8931 264.873C95.9508 264.813 95.9803 264.783 95.9803 264.783C95.9803 264.783 119.105 285.664 119.6 302.593Z" fill="#C78FFF"/>
<path d="M96.8776 323.524L104.769 311.797L96.8937 324.786L96.9102 326.106C96.334 326.11 95.7635 326.1 95.1986 326.077L95.59 309.114L95.5792 308.983L95.5937 308.958L95.6311 307.355L86.9888 294.816L95.621 306.155L95.6516 306.494L95.9472 293.678L88.4825 280.678L95.9685 291.426L95.8904 264.874L95.8905 264.786L95.8931 264.873L96.3886 285.799L103.192 277.299L96.4109 287.602L96.5593 299.066L102.82 287.878L96.5824 300.751L96.665 307.126L105.769 291.541L96.6927 309.35L96.8776 323.524Z" fill="#3F3D56"/>
<path d="M334.622 351.675C334.912 361.613 329.102 365.255 321.809 365.468C321.64 365.473 321.471 365.476 321.303 365.477C320.965 365.48 320.63 365.474 320.299 365.46C313.704 365.187 308.483 361.688 308.213 352.446C307.934 342.882 319.814 330.455 320.705 329.536L320.706 329.535C320.74 329.5 320.758 329.482 320.758 329.482C320.758 329.482 334.331 341.739 334.622 351.675Z" fill="#C78FFF"/>
<path d="M321.284 363.962L325.917 357.078L321.294 364.702L321.303 365.477C320.965 365.479 320.63 365.474 320.299 365.46L320.529 355.503L320.522 355.426L320.531 355.411L320.553 354.471L315.48 347.111L320.547 353.766L320.565 353.965L320.738 346.442L316.357 338.812L320.751 345.121L320.705 329.536L320.705 329.484L320.707 329.535L320.997 341.818L324.991 336.829L321.01 342.876L321.098 349.605L324.772 343.038L321.111 350.595L321.16 354.336L326.504 345.188L321.176 355.641L321.284 363.962Z" fill="#3F3D56"/>
<path d="M514.953 27.4608C514.968 27.4118 514.984 27.3623 515 27.3132C514.993 27.3347 514.985 27.3554 514.978 27.377L514.953 27.4608Z" fill="#2F2E41"/>
<path d="M439.931 312.127L479.695 253.036L440.012 318.484L440.095 325.134C437.192 325.156 434.317 325.107 431.471 324.989L433.443 239.517L433.389 238.858L433.462 238.73L433.65 230.654L390.104 167.475L433.599 224.609L433.753 226.316L435.243 161.739L397.631 96.2366L435.35 150.395L434.956 16.6076L434.957 16.1624L434.97 16.6003L437.467 122.042L471.746 79.2118L437.579 131.126L438.327 188.889L469.871 132.515L438.443 197.381L438.86 229.5L484.733 150.971L438.999 240.705L439.931 312.127Z" fill="#3F3D56"/>
<path d="M33.9055 309.837L60.9638 269.627L33.9608 314.163L34.0173 318.687C32.0419 318.702 30.0858 318.669 28.1488 318.589L29.4908 260.428L29.4541 259.979L29.5036 259.892L29.632 254.396L0 211.405L29.5971 250.283L29.7021 251.445L30.7158 207.502L5.12167 162.929L30.7887 199.782L30.5208 108.744L30.5213 108.441L30.53 108.739L32.229 180.49L55.555 151.344L32.3054 186.671L32.8145 225.977L54.2792 187.616L32.8934 231.755L33.1768 253.611L64.3922 200.175L33.2716 261.236L33.9055 309.837Z" fill="#3F3D56"/>
</g>
<defs>
<clipPath id="clip0_1_1667">
<rect width="515" height="368" fill="white"/>
</clipPath>
</defs>
</svg>
